<svg version="1.1" id="Layer_1" xmlns="http://www.w3.org/2000/svg" xmlns:xlink="http://www.w3.org/1999/xlink" x="0px" y="0px" width="1198.6px" height="1109.1px" viewBox="0 0 1198.6 1109.1" enable-background="new 0 0 1198.6 1109.1" xml:space="preserve">
<g id="sections">
	<g id="field_P7" enable-background="new    " class="empty">
		<g>
			<polygon fill="#97cfe8" points="920,124 1019.4,54.4 1020.6,62.9 921.2,132.5 			"></polygon>
		</g>
		<g>
			<polygon fill="#97cfe8" points="1019.2,54.9 1020.3,62.7 921.4,132 920.3,124.1 			"></polygon>
		</g>
		<g>
			<polygon fill="#96cae2" points="894.9,117.9 893.6,109.4 920.6,124 921.8,132.6 			"></polygon>
		</g>
		<g>
			<polygon fill="#96cae2" points="920.3,124.1 921.4,132 895.2,117.7 894,109.9 			"></polygon>
		</g>
		<g>
			<polygon fill="#97d0e9" points="893.5,110 992.9,40.4 1019.7,54.9 920.3,124.5 			"></polygon>
		</g>
		<g>
			<polygon fill="#97d0e9" points="992.9,40.7 1019.2,54.9 920.3,124.1 894,109.9 			"></polygon>
		</g>
	</g>
	<g id="field_P6" enable-background="new    ">
		<g>
			<polygon fill="#E2DE3E" points="794.3,211.1 893.7,141.5 894.9,150 795.6,219.6 			"></polygon>
		</g>
		<g>
			<polygon fill="#E2DE3E" points="893.5,142 894.6,149.8 795.8,219.1 794.6,211.2 			"></polygon>
		</g>
		<g>
			<polygon fill="#D5D13B" points="769.2,205 767.9,196.5 794.9,211.1 796.2,219.7 			"></polygon>
		</g>
		<g>
			<polygon fill="#D5D13B" points="794.6,211.2 795.8,219.1 769.5,204.8 768.3,197 			"></polygon>
		</g>
		<g>
			<polygon fill="#E4E13F" points="767.8,197.1 867.2,127.5 894,142 794.6,211.6 			"></polygon>
		</g>
		<g>
			<polygon fill="#E4E13F" points="867.2,127.8 893.5,142 794.6,211.2 768.3,197 			"></polygon>
		</g>
	</g>
	<g id="field_P5" enable-background="new    " class="empty">
		<g>
			<polygon fill="#f0ee9e" points="670.1,298.1 769.4,228.5 770.7,237 671.3,306.6 			"></polygon>
		</g>
		<g>
			<polygon fill="#f0ee9e" points="769.2,229 770.4,236.8 671.5,306.1 670.4,298.2 			"></polygon>
		</g>
		<g>
			<polygon fill="#eae89d" points="645,292 643.7,283.5 670.7,298.1 671.9,306.7 			"></polygon>
		</g>
		<g>
			<polygon fill="#eae89d" points="670.4,298.2 671.5,306.1 645.3,291.8 644.1,284 			"></polygon>
		</g>
		<g>
			<polygon fill="#f1f09f" points="643.6,284.1 743,214.5 769.7,229 670.4,298.6 			"></polygon>
		</g>
		<g>
			<polygon fill="#f1f09f" points="743,214.8 769.2,229 670.4,298.2 644.1,284 			"></polygon>
		</g>
	</g>
	<g id="field_P4" enable-background="new    " class="empty">
		<g>
			<polygon fill="#f0ee9e" points="448,453.6 643.9,316.4 645.1,324.9 449.2,462.1 			"></polygon>
		</g>
		<g>
			<polygon fill="#f0ee9e" points="643.7,316.9 644.8,324.7 449.4,461.6 448.3,453.7 			"></polygon>
		</g>
		<g>
			<polygon fill="#eae89d" points="422.9,447.6 421.6,439 448.6,453.6 449.8,462.2 			"></polygon>
		</g>
		<g>
			<polygon fill="#eae89d" points="448.3,453.7 449.4,461.6 423.2,447.4 422,439.5 			"></polygon>
		</g>
		<g>
			<polygon fill="#f1f09f" points="421.5,439.6 617.4,302.4 644.2,316.9 448.3,454.1 			"></polygon>
		</g>
		<g>
			<polygon fill="#f1f09f" points="617.4,302.7 643.7,316.9 448.3,453.7 422,439.5 			"></polygon>
		</g>
	</g>
	<g id="field_P3" enable-background="new    " class="empty" style="cursor: pointer;">
		<g>
			<polygon fill="#efed9d" points="323.7,540.6 423.1,471 424.4,479.5 325,549.1 			"></polygon>
		</g>
		<g>
			<polygon fill="#efed9d" points="422.9,471.5 424.1,479.3 325.2,548.6 324,540.7 			"></polygon>
		</g>
		<g>
			<polygon fill="#e9e79d" points="298.6,534.5 297.4,526 324.3,540.6 325.6,549.2 			"></polygon>
		</g>
		<g>
			<polygon fill="#e9e79d" points="324,540.7 325.2,548.6 298.9,534.3 297.8,526.5 			"></polygon>
		</g>
		<g>
			<polygon fill="#f1ef9f" points="297.3,526.6 396.6,457 423.4,471.5 324,541.1 			"></polygon>
		</g>
		<g>
			<polygon fill="#f1ef9f" points="396.6,457.3 422.9,471.5 324,540.7 297.8,526.5 			"></polygon>
		</g>
	</g>
	<g id="field_P2" enable-background="new    " style="cursor: pointer;">
		<g>
			<polygon fill="#e1dd3d" points="199.1,627.9 298.4,558.3 299.7,566.8 200.3,636.3 			"></polygon>
		</g>
		<g>
			<polygon fill="#e1dd3d" points="298.2,558.8 299.4,566.6 200.5,635.8 199.4,628 			"></polygon>
		</g>
		<g>
			<polygon fill="#d5d13b" points="174,621.8 172.7,613.3 199.7,627.9 200.9,636.4 			"></polygon>
		</g>
		<g>
			<polygon fill="#d5d13b" points="199.4,628 200.5,635.8 174.3,621.6 173.1,613.8 			"></polygon>
		</g>
		<g>
			<polygon fill="#e3e13f" points="172.6,613.9 272,544.3 298.7,558.8 199.4,628.4 			"></polygon>
		</g>
		<g>
			<polygon fill="#e3e13f" points="272,544.6 298.2,558.8 199.4,628 173.1,613.8 			"></polygon>
		</g>
	</g>
	<g id="field_110_A" enable-background="new    " class="empty" style="cursor: pointer;">
		<g>
			<polygon fill="#97cfe7" points="987,160.3 1086.3,90.7 1087.6,99.2 988.2,168.7 			"></polygon>
		</g>
		<g>
			<polygon fill="#97cfe7" points="1086.1,91.2 1087.3,99 988.4,168.2 987.3,160.4 			"></polygon>
		</g>
		<g>
			<polygon fill="#95c9e1" points="936,140.2 934.8,131.7 987.6,160.3 988.8,168.8 			"></polygon>
		</g>
		<g>
			<polygon fill="#95c9e1" points="987.3,160.4 988.4,168.2 936.3,140 935.2,132.2 			"></polygon>
		</g>
		<g>
			<polygon fill="#97cfe9" points="934.7,132.3 1034.1,62.7 1086.6,91.2 987.3,160.8 			"></polygon>
		</g>
		<g>
			<polygon fill="#97cfe9" points="1034.1,63 1086.1,91.2 987.3,160.4 935.2,132.2 			"></polygon>
		</g>
	</g>
	<g id="field_110_B" enable-background="new    " class="empty" style="cursor: pointer;">
		<g>
			<polygon fill="#f1a7a7" points="1037.8,187.8 1137.2,118.2 1138.4,126.7 1039.1,196.2 			"></polygon>
		</g>
		<g>
			<polygon fill="#f1a7a7" points="1137,118.7 1138.1,126.5 1039.3,195.7 1038.1,187.9 			"></polygon>
		</g>
		<g>
			<polygon fill="#eba5a5" points="988.1,168.4 986.9,159.9 1038.4,187.8 1039.7,196.3 			"></polygon>
		</g>
		<g>
			<polygon fill="#eba5a5" points="1038.1,187.9 1039.3,195.7 988.4,168.2 987.3,160.4 			"></polygon>
		</g>
		<g>
			<polygon fill="#f3a7a7" points="986.8,160.5 1086.1,90.9 1137.5,118.7 1038.1,188.3 			"></polygon>
		</g>
		<g>
			<polygon fill="#f3a7a7" points="1086.1,91.2 1137,118.7 1038.1,187.9 987.3,160.4 			"></polygon>
		</g>
	</g>
	<g id="field_109_A" enable-background="new    " class="empty">
		<g>
			<polygon fill="#f0ee9e" points="861.3,247.4 960.6,177.8 961.9,186.3 862.5,255.8 			"></polygon>
		</g>
		<g>
			<polygon fill="#f0ee9e" points="960.4,178.3 961.6,186.1 862.7,255.3 861.6,247.5 			"></polygon>
		</g>
		<g>
			<polygon fill="#eae89d" points="810.4,227.3 809.1,218.8 861.9,247.4 863.1,255.9 			"></polygon>
		</g>
		<g>
			<polygon fill="#eae89d" points="861.6,247.5 862.7,255.3 810.7,227.1 809.5,219.3 			"></polygon>
		</g>
		<g>
			<polygon fill="#f1f09f" points="809,219.4 908.4,149.8 960.9,178.3 861.6,247.9 			"></polygon>
		</g>
		<g>
			<polygon fill="#f1f09f" points="908.4,150.1 960.4,178.3 861.6,247.5 809.5,219.3 			"></polygon>
		</g>
	</g>
	<g id="field_109_B" class="empty" style="cursor: pointer;">
		<g>
			<polygon fill="#97cfe7" points="912.1,274.9 1011.5,205.3 1012.7,213.8 913.4,283.4 			"></polygon>
		</g>
		<g>
			<polygon fill="#97cfe7" points="1011.3,205.8 1012.4,213.6 913.6,282.9 912.4,275 			"></polygon>
		</g>
		<g>
			<polygon fill="#95c9e1" points="862.4,255.5 861.2,247 912.7,274.9 914,283.5 			"></polygon>
		</g>
		<g>
			<polygon fill="#95c9e1" points="912.4,275 913.6,282.9 862.7,255.3 861.6,247.5 			"></polygon>
		</g>
		<g>
			<polygon fill="#97cfe9" points="861.1,247.6 960.4,178 1011.8,205.8 912.4,275.4 			"></polygon>
		</g>
		<g>
			<polygon fill="#97cfe9" points="960.4,178.3 1011.3,205.8 912.4,275 861.6,247.5 			"></polygon>
		</g>
	</g>
	<g id="field_108_A" enable-background="new    " style="cursor: pointer;">
		<g>
			<polygon fill="#d5d13b" points="686.1,314.3 684.9,305.8 696.1,311.9 697.4,320.4 			"></polygon>
		</g>
		<g>
			<polygon fill="#d5d13b" points="695.8,312 697,319.8 686.4,314.1 685.3,306.3 			"></polygon>
		</g>
		<g>
			<polygon fill="#d5d13b" points="696.7,320 695.4,311.5 737.6,334.4 738.9,342.9 			"></polygon>
		</g>
		<g>
			<polygon fill="#d5d13b" points="737.3,334.5 738.5,342.3 697,319.8 695.8,312 			"></polygon>
		</g>
		<g>
			<polygon fill="#e1dd3d" points="737,334.4 836.4,264.8 837.7,273.3 738.3,342.8 			"></polygon>
		</g>
		<g>
			<polygon fill="#e1dd3d" points="836.2,265.3 837.4,273.1 738.5,342.3 737.3,334.5 			"></polygon>
		</g>
		<g>
			<polygon fill="#e3e13f" points="695.7,312.3 684.8,306.4 784.1,236.8 789.4,239.7 836.7,265.3 737.3,334.9 			"></polygon>
		</g>
		<g>
			<polygon fill="#e3e13f" points="784.1,237.1 789.3,239.9 836.2,265.3 737.3,334.5 695.8,312 685.3,306.3 			"></polygon>
		</g>
	</g>
	<g id="field_107_A" enable-background="new    " class="empty" style="cursor: pointer;">
		<g>
			<polygon fill="#e9e79d" points="464,469.8 462.8,461.3 474.6,467.7 475.9,476.3 			"></polygon>
		</g>
		<g>
			<polygon fill="#e9e79d" points="474.3,467.8 475.5,475.7 464.3,469.6 463.2,461.8 			"></polygon>
		</g>
		<g>
			<polygon fill="#e9e79d" points="475.2,475.9 473.9,467.3 515.5,489.9 516.8,498.4 			"></polygon>
		</g>
		<g>
			<polygon fill="#e9e79d" points="515.2,490 516.4,497.8 475.5,475.7 474.3,467.8 			"></polygon>
		</g>
		<g>
			<polygon fill="#efed9d" points="514.9,489.9 710.8,352.7 712.1,361.2 516.2,498.3 			"></polygon>
		</g>
		<g>
			<polygon fill="#efed9d" points="710.6,353.2 711.8,361 516.4,497.8 515.2,490 			"></polygon>
		</g>
		<g>
			<polygon fill="#f1ef9f" points="474.2,468.1 462.7,461.9 658.6,324.7 670.1,331 711.1,353.2 515.2,490.4 			"></polygon>
		</g>
		<g>
			<polygon fill="#f1ef9f" points="658.6,325 670,331.2 710.6,353.2 515.2,490 474.3,467.8 463.2,461.8 			"></polygon>
		</g>
	</g>
	<g id="field_106_A" enable-background="new    ">
		<g>
			<polygon fill="#D5D13B" points="339.8,556.8 338.5,548.3 345.4,552.1 346.7,560.6 			"></polygon>
		</g>
		<g>
			<polygon fill="#D5D13B" points="345.1,552.2 346.3,560 340.1,556.6 338.9,548.8 			"></polygon>
		</g>
		<g>
			<polygon fill="#D5D13B" points="346,560.2 344.7,551.7 391.3,576.9 392.6,585.4 			"></polygon>
		</g>
		<g>
			<polygon fill="#D5D13B" points="391,577 392.2,584.8 346.3,560 345.1,552.2 			"></polygon>
		</g>
		<g>
			<polygon fill="#E2DE3E" points="390.7,576.9 490.1,507.3 491.3,515.8 392,585.3 			"></polygon>
		</g>
		<g>
			<polygon fill="#E2DE3E" points="489.9,507.8 491,515.6 392.2,584.8 391,577 			"></polygon>
		</g>
		<g>
			<polygon fill="#E4E13F" points="345,552.5 338.4,548.9 437.8,479.3 448.4,485.1 490.4,507.8 391,577.4 			"></polygon>
		</g>
		<g>
			<polygon fill="#E4E13F" points="437.8,479.6 448.3,485.3 489.9,507.8 391,577 345.1,552.2 338.9,548.8 			"></polygon>
		</g>
	</g>
	<g id="field_105_A" enable-background="new    " class="empty" style="cursor: pointer;">
		<g>
			<polygon fill="#efed9d" points="266,664.2 365.4,594.6 366.7,603.1 267.3,672.6 			"></polygon>
		</g>
		<g>
			<polygon fill="#efed9d" points="365.2,595.1 366.4,602.9 267.5,672.1 266.3,664.3 			"></polygon>
		</g>
		<g>
			<polygon fill="#e9e79d" points="215.1,644.1 213.9,635.6 266.6,664.2 267.9,672.7 			"></polygon>
		</g>
		<g>
			<polygon fill="#e9e79d" points="266.3,664.3 267.5,672.1 215.4,643.9 214.3,636.1 			"></polygon>
		</g>
		<g>
			<polygon fill="#f1ef9f" points="213.8,636.2 313.1,566.6 365.7,595.1 266.3,664.7 			"></polygon>
		</g>
		<g>
			<polygon fill="#f1ef9f" points="313.1,566.9 365.2,595.1 266.3,664.3 214.3,636.1 			"></polygon>
		</g>
	</g>
	<g id="field_108_B" enable-background="new    " style="cursor: pointer;">
		<g>
			<polygon fill="#2f9fd1" points="787.9,361.9 887.2,292.3 888.5,300.8 789.1,370.4 			"></polygon>
		</g>
		<g>
			<polygon fill="#2f9fd1" points="887,292.8 888.2,300.6 789.3,369.9 788.2,362 			"></polygon>
		</g>
		<g>
			<polygon fill="#2d95c5" points="738.2,342.5 736.9,334 788.5,361.9 789.7,370.5 			"></polygon>
		</g>
		<g>
			<polygon fill="#2d95c5" points="788.2,362 789.3,369.9 738.5,342.3 737.3,334.5 			"></polygon>
		</g>
		<g>
			<polygon fill="#2fa1d3" points="736.8,334.6 836.2,265 887.5,292.8 788.2,362.4 			"></polygon>
		</g>
		<g>
			<polygon fill="#2fa1d3" points="836.2,265.3 887,292.8 788.2,362 737.3,334.5 			"></polygon>
		</g>
	</g>
	<g id="field_107_B" enable-background="new    " style="cursor: pointer;">
		<g>
			<polygon fill="#2f9fd1" points="565.8,517.4 761.7,380.2 762.9,388.7 567,525.9 			"></polygon>
		</g>
		<g>
			<polygon fill="#2f9fd1" points="761.5,380.7 762.6,388.5 567.2,525.4 566.1,517.5 			"></polygon>
		</g>
		<g>
			<polygon fill="#2d95c5" points="516.1,498 514.8,489.5 566.4,517.4 567.6,526 			"></polygon>
		</g>
		<g>
			<polygon fill="#2d95c5" points="566.1,517.5 567.2,525.4 516.4,497.8 515.2,490 			"></polygon>
		</g>
		<g>
			<polygon fill="#2fa1d3" points="514.7,490.1 710.6,352.9 762,380.7 566.1,517.9 			"></polygon>
		</g>
		<g>
			<polygon fill="#2fa1d3" points="710.6,353.2 761.5,380.7 566.1,517.5 515.2,490 			"></polygon>
		</g>
	</g>
	<g id="field_106_B" enable-background="new    ">
		<g>
			<polygon fill="#309FD1" points="441.5,604.4 540.9,534.8 542.2,543.3 442.8,612.9 			"></polygon>
		</g>
		<g>
			<polygon fill="#309FD1" points="540.7,535.3 541.9,543.1 443,612.4 441.8,604.5 			"></polygon>
		</g>
		<g>
			<polygon fill="#2D96C5" points="391.9,585 390.6,576.5 442.1,604.4 443.4,613 			"></polygon>
		</g>
		<g>
			<polygon fill="#2D96C5" points="441.8,604.5 443,612.4 392.2,584.8 391,577 			"></polygon>
		</g>
		<g>
			<polygon fill="#30A1D3" points="390.5,577.1 489.9,507.5 541.2,535.3 441.8,604.9 			"></polygon>
		</g>
		<g>
			<polygon fill="#30A1D3" points="489.9,507.8 540.7,535.3 441.8,604.5 391,577 			"></polygon>
		</g>
	</g>
	<g id="field_105_B" enable-background="new    " style="cursor: pointer;">
		<g>
			<polygon fill="#2f9fd1" points="316.9,691.7 416.3,622.1 417.5,630.6 318.1,700.1 			"></polygon>
		</g>
		<g>
			<polygon fill="#2f9fd1" points="416.1,622.6 417.2,630.4 318.3,699.6 317.2,691.8 			"></polygon>
		</g>
		<g>
			<polygon fill="#2d95c5" points="267.2,672.3 265.9,663.8 317.5,691.7 318.7,700.2 			"></polygon>
		</g>
		<g>
			<polygon fill="#2d95c5" points="317.2,691.8 318.3,699.6 267.5,672.1 266.3,664.3 			"></polygon>
		</g>
		<g>
			<polygon fill="#2fa1d3" points="265.8,664.4 365.2,594.8 416.6,622.6 317.2,692.2 			"></polygon>
		</g>
		<g>
			<polygon fill="#2fa1d3" points="365.2,595.1 416.1,622.6 317.2,691.8 266.3,664.3 			"></polygon>
		</g>
	</g>
	<g id="field_211_A" enable-background="new    " class="empty" style="cursor: pointer;">
		<g>
			<polygon fill="#f1a7a7" points="981.2,312.4 1080.6,242.7 1081.8,251.2 982.5,320.8 			"></polygon>
		</g>
		<g>
			<polygon fill="#f1a7a7" points="1080.4,243.2 1081.5,251 982.7,320.3 981.5,312.5 			"></polygon>
		</g>
		<g>
			<polygon fill="#eba5a5" points="943.4,299.4 942.2,290.9 981.8,312.4 983.1,320.9 			"></polygon>
		</g>
		<g>
			<polygon fill="#eba5a5" points="981.5,312.5 982.7,320.3 943.7,299.2 942.6,291.4 			"></polygon>
		</g>
		<g>
			<polygon fill="#f3a7a7" points="942.1,291.5 1041.5,221.8 1080.9,243.2 981.5,312.9 			"></polygon>
		</g>
		<g>
			<polygon fill="#f3a7a7" points="1041.5,222.1 1080.4,243.2 981.5,312.5 942.6,291.4 			"></polygon>
		</g>
	</g>
	<g id="field_210_A" enable-background="new    " style="cursor: pointer;">
		<g>
			<polygon fill="#e55151" points="857,399.4 956.4,329.7 957.6,338.2 858.2,407.8 			"></polygon>
		</g>
		<g>
			<polygon fill="#e55151" points="956.2,330.2 957.3,338 858.4,407.3 857.3,399.5 			"></polygon>
		</g>
		<g>
			<polygon fill="#d74b4b" points="819.2,386.4 817.9,377.9 857.6,399.4 858.8,407.9 			"></polygon>
		</g>
		<g>
			<polygon fill="#d74b4b" points="857.3,399.5 858.4,407.3 819.5,386.2 818.3,378.4 			"></polygon>
		</g>
		<g>
			<polygon fill="#e75151" points="817.8,378.5 917.2,308.8 956.7,330.2 857.3,399.9 			"></polygon>
		</g>
		<g>
			<polygon fill="#e75151" points="917.2,309.1 956.2,330.2 857.3,399.5 818.3,378.4 			"></polygon>
		</g>
	</g>
	<g id="field_211_B" enable-background="new    " class="empty" style="cursor: pointer;">
		<g>
			<polygon fill="#add7a1" points="1013.5,329.9 1112.9,260.2 1114.2,268.8 1014.8,338.3 			"></polygon>
		</g>
		<g>
			<polygon fill="#add7a1" points="1112.7,260.7 1113.9,268.6 1015,337.8 1013.8,330 			"></polygon>
		</g>
		<g>
			<polygon fill="#a9d39f" points="982.4,320.5 981.1,312 1014.1,329.9 1015.4,338.4 			"></polygon>
		</g>
		<g>
			<polygon fill="#a9d39f" points="1013.8,330 1015,337.8 982.7,320.3 981.5,312.5 			"></polygon>
		</g>
		<g>
			<polygon fill="#add9a1" points="981,312.6 1080.4,242.9 1113.2,260.7 1013.8,330.4 			"></polygon>
		</g>
		<g>
			<polygon fill="#add9a1" points="1080.4,243.2 1112.7,260.7 1013.8,330 981.5,312.5 			"></polygon>
		</g>
	</g>
	<g id="field_210_B" enable-background="new    " style="cursor: pointer;">
		<g>
			<polygon fill="#5bb143" points="889.3,416.9 988.7,347.2 989.9,355.7 890.6,425.3 			"></polygon>
		</g>
		<g>
			<polygon fill="#5bb143" points="988.5,347.7 989.6,355.5 890.8,424.8 889.6,417 			"></polygon>
		</g>
		<g>
			<polygon fill="#55a73f" points="858.1,407.5 856.9,399 889.9,416.9 891.2,425.4 			"></polygon>
		</g>
		<g>
			<polygon fill="#55a73f" points="889.6,417 890.8,424.8 858.4,407.3 857.3,399.5 			"></polygon>
		</g>
		<g>
			<polygon fill="#5bb343" points="856.8,399.6 956.2,329.9 989,347.7 889.6,417.4 			"></polygon>
		</g>
		<g>
			<polygon fill="#5bb343" points="956.2,330.2 988.5,347.7 889.6,417 857.3,399.5 			"></polygon>
		</g>
	</g>
	<g id="field_209_A" enable-background="new    " style="cursor: pointer;">
		<g>
			<polygon fill="#e55151" points="634.9,554.9 830.8,417.6 832,426.2 636.1,563.3 			"></polygon>
		</g>
		<g>
			<polygon fill="#e55151" points="830.6,418.1 831.7,426 636.3,562.8 635.2,555 			"></polygon>
		</g>
		<g>
			<polygon fill="#e75151" points="595.8,534 791.6,396.8 831.1,418.1 635.2,555.4 			"></polygon>
		</g>
		<g>
			<polygon fill="#e75151" points="791.6,397.1 830.6,418.1 635.2,555 596.3,533.9 			"></polygon>
		</g>
		<g>
			<polygon fill="#d74b4b" points="597.1,541.9 595.9,533.4 635.5,554.9 636.7,563.4 			"></polygon>
		</g>
		<g>
			<polygon fill="#d74b4b" points="635.2,555 636.3,562.8 597.4,541.7 596.3,533.9 			"></polygon>
		</g>
	</g>
	<g id="field_209_B" class="empty">
		<g>
			<polygon fill="#aad39f" points="636,563 634.8,554.5 667.8,572.4 669.1,580.9 			"></polygon>
		</g>
		<g>
			<polygon fill="#aad39f" points="667.5,572.5 668.7,580.3 636.3,562.8 635.2,555 			"></polygon>
		</g>
		<g>
			<polygon fill="#add8a1" points="667.2,572.4 863.1,435.2 864.4,443.7 668.5,580.8 			"></polygon>
		</g>
		<g>
			<polygon fill="#add8a1" points="862.9,435.7 864.1,443.5 668.7,580.3 667.5,572.5 			"></polygon>
		</g>
		<g>
			<polygon fill="#add9a1" points="634.7,555.1 830.6,417.8 863.4,435.7 667.5,572.9 			"></polygon>
		</g>
		<g>
			<polygon fill="#add9a1" points="830.6,418.1 862.9,435.7 667.5,572.5 635.2,555 			"></polygon>
		</g>
	</g>
	<g id="field_208_A" enable-background="new    " style="cursor: pointer;">
		<g>
			<polygon fill="#e55151" points="510.6,641.9 610,572.2 611.3,580.7 511.9,650.3 			"></polygon>
		</g>
		<g>
			<polygon fill="#e55151" points="609.8,572.7 611,580.5 512.1,649.8 510.9,642 			"></polygon>
		</g>
		<g>
			<polygon fill="#d74b4b" points="472.9,628.9 471.6,620.4 511.2,641.9 512.5,650.4 			"></polygon>
		</g>
		<g>
			<polygon fill="#d74b4b" points="510.9,642 512.1,649.8 473.2,628.7 472,620.9 			"></polygon>
		</g>
		<g>
			<polygon fill="#e75151" points="471.5,621 570.9,551.3 610.3,572.7 510.9,642.4 			"></polygon>
		</g>
		<g>
			<polygon fill="#e75151" points="570.9,551.6 609.8,572.7 510.9,642 472,620.9 			"></polygon>
		</g>
	</g>
	<g id="field_208_B" enable-background="new    " style="cursor: pointer;">
		<g>
			<polygon fill="#5bb143" points="543,659.4 642.4,589.7 643.6,598.2 544.2,667.8 			"></polygon>
		</g>
		<g>
			<polygon fill="#5bb143" points="642.2,590.2 643.3,598 544.4,667.3 543.3,659.5 			"></polygon>
		</g>
		<g>
			<polygon fill="#55a73f" points="511.8,650 510.5,641.5 543.6,659.4 544.8,667.9 			"></polygon>
		</g>
		<g>
			<polygon fill="#55a73f" points="543.3,659.5 544.4,667.3 512.1,649.8 510.9,642 			"></polygon>
		</g>
		<g>
			<polygon fill="#5bb343" points="510.4,642.1 609.8,572.4 642.7,590.2 543.3,659.9 			"></polygon>
		</g>
		<g>
			<polygon fill="#5bb343" points="609.8,572.7 642.2,590.2 543.3,659.5 510.9,642 			"></polygon>
		</g>
	</g>
	<g id="field_207_A" enable-background="new    " class="empty">
		<g>
			<polygon fill="#f2a8a8" points="386,729.1 485.4,659.5 486.6,668 387.2,737.6 			"></polygon>
		</g>
		<g>
			<polygon fill="#f2a8a8" points="485.2,660 486.3,667.8 387.4,737.1 386.3,729.2 			"></polygon>
		</g>
		<g>
			<polygon fill="#eba5a5" points="348.2,716.2 347,707.7 386.6,729.1 387.8,737.7 			"></polygon>
		</g>
		<g>
			<polygon fill="#eba5a5" points="386.3,729.2 387.4,737.1 348.5,716 347.4,708.2 			"></polygon>
		</g>
		<g>
			<polygon fill="#f3a8a8" points="346.9,708.3 446.2,638.6 485.7,660 386.3,729.6 			"></polygon>
		</g>
		<g>
			<polygon fill="#f3a8a8" points="446.2,638.9 485.2,660 386.3,729.2 347.4,708.2 			"></polygon>
		</g>
	</g>
	<g id="field_207_B" class="empty">
		<g>
			<polygon fill="#add8a1" points="418.3,746.7 517.7,677 519,685.5 419.6,755.1 			"></polygon>
		</g>
		<g>
			<polygon fill="#add8a1" points="517.5,677.5 518.7,685.3 419.8,754.6 418.6,746.8 			"></polygon>
		</g>
		<g>
			<polygon fill="#aad39f" points="387.1,737.3 385.9,728.7 418.9,746.7 420.2,755.2 			"></polygon>
		</g>
		<g>
			<polygon fill="#aad39f" points="418.6,746.8 419.8,754.6 387.4,737.1 386.3,729.2 			"></polygon>
		</g>
		<g>
			<polygon fill="#add9a1" points="385.8,729.3 485.2,659.7 518,677.5 418.6,747.2 			"></polygon>
		</g>
		<g>
			<polygon fill="#add9a1" points="485.2,660 517.5,677.5 418.6,746.8 386.3,729.2 			"></polygon>
		</g>
	</g>
	<g id="field_P1" enable-background="new    " class="empty">
		<g>
			<polygon fill="#97cfe8" points="75,712.6 174.4,643 175.7,651.5 76.3,721 			"></polygon>
		</g>
		<g>
			<polygon fill="#97cfe8" points="174.2,643.5 175.4,651.3 76.5,720.5 75.3,712.7 			"></polygon>
		</g>
		<g>
			<polygon fill="#96cae2" points="49.9,706.5 48.7,698 75.6,712.6 76.9,721.1 			"></polygon>
		</g>
		<g>
			<polygon fill="#96cae2" points="75.3,712.7 76.5,720.5 50.2,706.3 49.1,698.5 			"></polygon>
		</g>
		<g>
			<polygon fill="#97d0e9" points="48.6,698.6 148,629 174.7,643.5 75.3,713.1 			"></polygon>
		</g>
		<g>
			<polygon fill="#97d0e9" points="148,629.3 174.2,643.5 75.3,712.7 49.1,698.5 			"></polygon>
		</g>
	</g>
	<g id="field_104_A" enable-background="new    " class="empty">
		<g>
			<polygon fill="#97cfe8" points="142,748.9 241.4,679.3 242.6,687.8 143.3,757.3 			"></polygon>
		</g>
		<g>
			<polygon fill="#97cfe8" points="241.2,679.8 242.3,687.6 143.5,756.8 142.3,749 			"></polygon>
		</g>
		<g>
			<polygon fill="#96cae2" points="91.1,728.8 89.8,720.3 142.6,748.9 143.9,757.4 			"></polygon>
		</g>
		<g>
			<polygon fill="#96cae2" points="142.3,749 143.5,756.8 91.4,728.6 90.2,720.8 			"></polygon>
		</g>
		<g>
			<polygon fill="#97d0e9" points="89.7,720.9 189.1,651.3 241.7,679.8 142.3,749.4 			"></polygon>
		</g>
		<g>
			<polygon fill="#97d0e9" points="189.1,651.6 241.2,679.8 142.3,749 90.2,720.8 			"></polygon>
		</g>
	</g>
	<g id="field_104_B" enable-background="new    " class="empty" style="cursor: pointer;">
		<g>
			<polygon fill="#f1a7a7" points="192.8,776.4 292.2,706.8 293.5,715.3 194.1,784.8 			"></polygon>
		</g>
		<g>
			<polygon fill="#f1a7a7" points="292,707.3 293.2,715.1 194.3,784.3 193.1,776.5 			"></polygon>
		</g>
		<g>
			<polygon fill="#eba5a5" points="143.2,757 141.9,748.5 193.4,776.4 194.7,784.9 			"></polygon>
		</g>
		<g>
			<polygon fill="#eba5a5" points="193.1,776.5 194.3,784.3 143.5,756.8 142.3,749 			"></polygon>
		</g>
		<g>
			<polygon fill="#f3a7a7" points="141.8,749.1 241.2,679.5 292.5,707.3 193.1,776.9 			"></polygon>
		</g>
		<g>
			<polygon fill="#f3a7a7" points="241.2,679.8 292,707.3 193.1,776.5 142.3,749 			"></polygon>
		</g>
	</g>
</g>
<g id="Layer_4">
	<g>
		<g>
			<path d="M239.2,576.3c2-1.4,5-1.9,7.3-0.7c1.3,0.7,1.9,1.8,1.9,3.6l-0.1,3.9h0.1l5.4-3.8l1.3,0.7l-7.7,5.4l-1-0.5v-5.2
				c0-1.3-0.2-2.4-1.3-3c-1.3-0.7-3.3-0.6-4.6,0.4c-1.2,0.8-1.5,1.7-1,2.7l-1.9,0.4C237,579,237.2,577.6,239.2,576.3z"></path>
		</g>
		<g>
			<path d="M229.4,582.7c3-2.1,5.8-2,8-0.8c2.6,1.4,2,3.3-0.6,5.2l-2.6,1.8l4.7,2.6l-1.6,1.1l-12.4-6.7L229.4,582.7z M235.3,586.4
				c2.1-1.5,1.9-2.7,0.5-3.4c-1.6-0.9-3.5-0.6-5.2,0.6l-2.7,1.9l4.9,2.7L235.3,586.4"></path>
		</g>
		<g>
			<path d="M366.7,487c2.1-1.5,4.9-2,6.9-0.9c1.1,0.6,1.6,1.6,0.9,2.7h0.1c1.8-0.6,3.7-0.6,5.1,0.1c2,1.1,1.6,3-0.6,4.6
				c-2.1,1.5-4.6,2-6.6,1.6l0.7-1.2c1.4,0.2,2.9-0.1,4.4-1.1c1.4-1,1.7-2.2,0.4-2.9c-1.2-0.6-3-0.6-4.9,0.7l-1,0.7l-1.3-0.7l1.2-0.8
				c1.6-1.1,1.3-2.1,0.3-2.6c-1.2-0.6-3-0.4-4.3,0.5c-1.2,0.8-1.4,1.6-1.2,2.3l-1.9,0.5C364.5,489.5,364.9,488.2,366.7,487z"></path>
		</g>
		<g>
			<path d="M356.9,493.4c3-2.1,5.8-2,8-0.9c2.6,1.4,2,3.3-0.6,5.2l-2.6,1.8l4.7,2.6l-1.6,1.1l-12.4-6.7L356.9,493.4z M362.8,497.1
				c2.1-1.5,1.9-2.7,0.5-3.4c-1.6-0.9-3.5-0.6-5.2,0.6l-2.7,1.9l4.9,2.7L362.8,497.1"></path>
		</g>
		<g>
			<path d="M528.7,373.1c3-2.1,5.8-2,8-0.9c2.6,1.4,2,3.3-0.6,5.2l-2.6,1.8l4.7,2.6l-1.6,1.1l-12.4-6.7L528.7,373.1z M534.6,376.8
				c2.1-1.5,1.9-2.7,0.5-3.4c-1.6-0.9-3.5-0.6-5.2,0.6l-2.7,1.9l4.9,2.7L534.6,376.8"></path>
		</g>
		<g>
			<path d="M550.3,369.1l1.8-1.2l1.3,0.7l-1.8,1.2l2.1,1.1l-1.5,1l-2.1-1.1l-5.7,4l-1-0.6l-2.9-8.9l1.3-0.9L550.3,369.1z
				 M548.9,370.2l-6.1-3.3l2.1,6.1L548.9,370.2"></path>
		</g>
		<g enable-background="new    ">
			<g>
				<path d="M714.7,243.4l1.4,0.7l-5.1,3.5l3.2,2c0.4-0.6,1-1.1,1.5-1.5c2.2-1.5,5.4-2,7.8-0.7c2.3,1.3,2.1,3.4-0.4,5.1
					c-1.7,1.2-4,1.9-6.1,1.8l0.3-1.2c1.4,0.1,3-0.3,4.3-1.2c1.7-1.2,1.8-2.6,0.3-3.4c-1.6-0.9-3.9-0.4-5.4,0.6
					c-0.8,0.6-1.3,1.2-1.5,1.9l-1.1,0.5l-5.7-3.5L714.7,243.4z"></path>
			</g>
			<g>
				<path d="M701,252.5c3-2.1,5.8-2,8-0.9c2.6,1.4,2,3.3-0.6,5.2l-2.6,1.8l4.7,2.6l-1.6,1.1l-12.4-6.7L701,252.5z M706.8,256.2
					c2.1-1.5,1.9-2.7,0.5-3.4c-1.6-0.9-3.5-0.6-5.2,0.6l-2.7,1.9l4.9,2.7L706.8,256.2"></path>
			</g>
		</g>
		<g>
			<path d="M824.5,166c3-2.1,5.8-2,8-0.8c2.6,1.4,2,3.3-0.6,5.2l-2.6,1.8l4.7,2.6l-1.6,1.1l-12.4-6.7L824.5,166z M830.3,169.7
				c2.1-1.5,1.9-2.7,0.5-3.4c-1.6-0.9-3.5-0.6-5.2,0.6l-2.7,1.9l4.9,2.7L830.3,169.7"></path>
		</g>
		<g>
			<path d="M839.9,161.2c2.2-1.5,5.2-1.9,7.6-0.6c2.2,1.2,2.1,3.4-0.4,5.1c-2.4,1.7-6.1,2-9,0.5c-4.3-2.3-4.2-6-1.6-8.6l1.7,0.4
				c-1.7,1.9-2.3,4.1-0.3,6C838.1,163,838.7,162.1,839.9,161.2z M845.9,164.9c1.6-1.1,1.5-2.5,0.1-3.2c-1.4-0.8-3.5-0.6-5.1,0.5
				c-1.4,0.9-1.6,2.1-1.2,3l0.1,0.1C841.7,166.2,844.2,166,845.9,164.9"></path>
		</g>
		<g>
			<polygon points="303.8,633.2 315.8,639.7 314.3,640.8 304.1,635.2 303.5,637.9 301.7,637.8 302.6,634.1 			"></polygon>
		</g>
		<g>
			<path d="M310.9,628.1c2.6-1.9,6.8-2,10.7,0.1c3.5,1.9,4.4,4.5,1.5,6.5c-2.7,1.9-6.8,2-10.7-0.1
				C308.9,632.7,308,630.2,310.9,628.1z M321.7,634c2-1.4,1.2-3.2-1.7-4.7c-3.1-1.7-6-1.7-7.8-0.4c-1.9,1.4-1.2,3.2,1.7,4.7
				C317,635.2,319.9,635.3,321.7,634"></path>
		</g>
		<g>
			<path d="M325,618.4l1.4,0.7l-5.1,3.5l3.2,2c0.4-0.6,1-1.2,1.5-1.5c2.2-1.5,5.4-2,7.8-0.7c2.3,1.3,2.1,3.4-0.4,5.1
				c-1.7,1.2-4,1.9-6.1,1.8l0.3-1.2c1.4,0.1,3-0.3,4.3-1.2c1.7-1.2,1.8-2.6,0.3-3.4c-1.6-0.9-3.9-0.4-5.4,0.6
				c-0.8,0.6-1.3,1.2-1.5,1.9l-1.1,0.5l-5.7-3.5L325,618.4z"></path>
		</g>
		<g enable-background="new    ">
			<g>
				<polygon points="443,681.1 444.1,681.7 450.4,691.1 448.6,692 442.7,683 436.8,687.2 435.4,686.4 				"></polygon>
			</g>
			<g>
				<path d="M429.3,690.6c2.6-1.9,6.8-2,10.7,0.1c3.5,1.9,4.4,4.5,1.5,6.5c-2.7,1.9-6.8,2-10.7-0.1
					C427.3,695.2,426.4,692.6,429.3,690.6z M440.2,696.4c2-1.4,1.2-3.2-1.7-4.7c-3.1-1.7-6-1.7-7.8-0.4c-1.9,1.4-1.2,3.2,1.7,4.7
					C435.4,697.7,438.4,697.7,440.2,696.4"></path>
			</g>
		</g>
		<g>
			<path d="M419.1,697.8c2-1.4,5.1-1.9,7.3-0.7c1.3,0.7,1.9,1.8,1.9,3.6l-0.1,3.9h0.1l5.4-3.8l1.3,0.7l-7.7,5.4l-1-0.5v-5.2
				c0-1.3-0.2-2.4-1.3-3c-1.3-0.7-3.2-0.6-4.6,0.4c-1.2,0.8-1.5,1.7-1,2.7l-1.9,0.4C416.9,700.5,417.2,699.1,419.1,697.8z"></path>
		</g>
		<g>
			<path d="M436.7,539.5c2.7-1.9,6.8-2,10.7,0.1c3.5,1.9,4.4,4.5,1.5,6.5c-2.7,1.9-6.8,2-10.7-0.1
				C434.6,544.1,433.8,541.6,436.7,539.5z M447.5,545.4c2-1.4,1.2-3.2-1.7-4.7c-3.1-1.7-6-1.7-7.8-0.4c-1.9,1.4-1.2,3.2,1.7,4.7
				C442.8,546.7,445.7,546.7,447.5,545.4"></path>
		</g>
		<g>
			<polygon points="429.6,544.6 441.6,551.1 440.1,552.2 429.9,546.6 429.2,549.3 427.4,549.2 428.4,545.5 			"></polygon>
		</g>
		<g>
			<path d="M452.4,534.1c2.2-1.5,5.2-1.9,7.6-0.6c2.2,1.2,2.1,3.4-0.4,5.1c-2.4,1.7-6.1,2-9,0.5c-4.3-2.3-4.2-6-1.6-8.6l1.7,0.4
				c-1.7,1.9-2.3,4.1-0.3,6C450.6,535.9,451.3,535,452.4,534.1z M458.4,537.8c1.6-1.1,1.5-2.5,0.1-3.2c-1.4-0.8-3.5-0.6-5.1,0.5
				c-1.4,0.9-1.6,2.1-1.2,3l0.1,0.1C454.2,539.1,456.8,538.9,458.4,537.8"></path>
		</g>
		<g>
			<path d="M609.7,418.4c2.7-1.9,6.8-2,10.7,0.1c3.5,1.9,4.4,4.5,1.5,6.5c-2.7,1.9-6.8,2-10.7-0.1
				C607.7,423,606.8,420.4,609.7,418.4z M620.6,424.2c2-1.4,1.2-3.2-1.7-4.7c-3.1-1.7-6-1.7-7.8-0.4c-1.9,1.4-1.2,3.2,1.7,4.7
				C615.8,425.5,618.8,425.5,620.6,424.2"></path>
		</g>
		<g>
			<polygon points="602.7,423.5 614.7,429.9 613.2,431 602.9,425.5 602.3,428.1 600.5,428.1 601.4,424.3 			"></polygon>
		</g>
		<g>
			<polygon points="623.4,408.9 624.4,409.5 630.8,418.9 629,419.8 623.1,410.8 617.2,415 615.8,414.2 			"></polygon>
		</g>
		<g>
			<path d="M780.8,295.6c2.7-1.9,6.8-2,10.7,0.1c3.5,1.9,4.4,4.5,1.5,6.5c-2.6,1.9-6.8,2-10.7-0.1
				C778.7,300.2,777.9,297.7,780.8,295.6z M791.6,301.5c2-1.4,1.2-3.2-1.7-4.7c-3.1-1.7-6-1.7-7.8-0.4c-1.9,1.4-1.2,3.2,1.7,4.7
				C786.8,302.7,789.8,302.8,791.6,301.5"></path>
		</g>
		<g>
			<polygon points="773.7,300.7 785.7,307.2 784.2,308.3 774,302.7 773.4,305.4 771.5,305.3 772.5,301.6 			"></polygon>
		</g>
		<g>
			<path d="M799,289.9c1.8-0.7,3.9-0.8,5.5,0.1c2.1,1.1,1.5,3.2-0.9,4.9c-2.5,1.8-5.7,2.2-7.7,1.2c-1.6-0.9-1.8-2.2-0.8-3.4l0,0
				c-1.2,0.4-3,0.5-4.3-0.2c-1.9-1-1.5-2.8,0.6-4.2c2.2-1.5,4.9-1.9,6.8-0.9C799.5,287.9,799.5,289.1,799,289.9L799,289.9z
				 M802.3,294.1c1.7-1.2,1.7-2.5,0.5-3.2c-1.4-0.7-3.4-0.5-5.1,0.7c-1.7,1.2-1.8,2.4-0.5,3.2C798.6,295.5,800.7,295.2,802.3,294.1
				 M792.3,291.5c1.1,0.6,2.7,0.3,4-0.6s1.6-2,0.5-2.6s-2.8-0.3-4.1,0.6C791.3,289.9,791.3,290.9,792.3,291.5"></path>
		</g>
		<g>
			<polygon points="898.4,215.6 910.4,222.1 908.9,223.2 898.7,217.6 898.1,220.3 896.2,220.2 897.2,216.5 			"></polygon>
		</g>
		<g>
			<path d="M916.1,203.1c2.4-1.7,6.2-2,9-0.4c4.4,2.4,4,6.2,1.4,8.7l-1.7-0.4c1.7-1.9,2.4-4.1,0.4-6.1c-0.1,0.9-0.8,1.9-2,2.8
				c-2.1,1.5-5.2,1.9-7.5,0.6C913.5,207,913.7,204.8,916.1,203.1z M923.6,203.7l-0.1-0.1c-2-1.1-4.4-0.9-6,0.2
				c-1.7,1.2-1.6,2.6-0.2,3.4c1.4,0.8,3.4,0.6,5-0.5C923.5,205.8,924,204.6,923.6,203.7"></path>
		</g>
		<g>
			<path d="M905.5,210.5c2.7-1.9,6.8-2,10.7,0.1c3.5,1.9,4.4,4.5,1.5,6.5c-2.7,1.9-6.8,2-10.7-0.1
				C903.4,215.1,902.6,212.6,905.5,210.5z M916.3,216.4c2-1.4,1.2-3.2-1.7-4.7c-3.1-1.7-6-1.7-7.8-0.4c-1.9,1.4-1.2,3.2,1.7,4.7
				C911.6,217.6,914.5,217.7,916.3,216.4"></path>
		</g>
		<g>
			<path d="M545.1,609.7c2-1.4,5-1.9,7.3-0.7c1.3,0.7,1.9,1.8,1.9,3.6v3.9h0.1l5.4-3.8l1.3,0.7l-7.7,5.4l-1-0.5v-5.2
				c0-1.3-0.2-2.4-1.3-3c-1.3-0.7-3.3-0.6-4.6,0.4c-1.2,0.8-1.5,1.7-1,2.7l-1.9,0.4C542.9,612.4,543.2,611,545.1,609.7z"></path>
		</g>
		<g>
			<path d="M573.6,596.7c1.8-0.7,3.9-0.8,5.5,0.1c2.1,1.1,1.5,3.2-0.9,4.9c-2.5,1.8-5.7,2.2-7.7,1.2c-1.6-0.9-1.8-2.2-0.8-3.3l0,0
				c-1.2,0.4-3,0.5-4.3-0.2c-1.9-1-1.5-2.8,0.6-4.2c2.2-1.5,4.9-1.9,6.8-0.9C574,594.8,574.1,595.9,573.6,596.7L573.6,596.7z
				 M576.9,600.9c1.7-1.2,1.8-2.5,0.5-3.2c-1.4-0.7-3.4-0.5-5.1,0.7c-1.7,1.2-1.8,2.4-0.5,3.2C573.2,602.3,575.3,602,576.9,600.9
				 M566.9,598.3c1.1,0.6,2.7,0.3,4-0.6c1.3-0.9,1.6-2,0.5-2.6s-2.8-0.3-4.1,0.6C565.9,596.7,565.9,597.8,566.9,598.3"></path>
		</g>
		<g>
			<path d="M555.4,602.5c2.7-1.9,6.8-2,10.7,0.1c3.5,1.9,4.4,4.5,1.5,6.5c-2.7,1.9-6.8,2-10.7-0.1
				C553.3,607.1,552.4,604.5,555.4,602.5z M566.2,608.3c2-1.4,1.2-3.2-1.7-4.7c-3.1-1.7-6-1.7-7.8-0.4c-1.9,1.4-1.2,3.2,1.7,4.7
				C561.4,609.6,564.4,609.6,566.2,608.3"></path>
		</g>
		<g>
			<path d="M735.4,475.6c2.4-1.7,6.2-2,9-0.4c4.4,2.4,4,6.2,1.4,8.7l-1.7-0.4c1.7-1.9,2.4-4.1,0.4-6.1c-0.1,0.9-0.8,1.9-2,2.8
				c-2.1,1.5-5.2,1.8-7.5,0.6C732.8,479.6,732.9,477.4,735.4,475.6z M742.9,476.2L742.9,476.2c-2.1-1.2-4.5-1-6.1,0.1
				c-1.7,1.2-1.6,2.6-0.2,3.3c1.5,0.8,3.4,0.6,5-0.5C742.8,478.4,743.3,477.2,742.9,476.2"></path>
		</g>
		<g>
			<path d="M724.7,483.1c2.7-1.9,6.8-2,10.7,0.1c3.5,1.9,4.4,4.5,1.5,6.5c-2.6,1.9-6.8,2-10.7-0.1
				C722.7,487.7,721.8,485.1,724.7,483.1z M735.6,489c2-1.4,1.2-3.2-1.7-4.7c-3.1-1.7-6-1.7-7.8-0.4c-1.9,1.4-1.2,3.2,1.7,4.7
				C730.8,490.2,733.8,490.2,735.6,489"></path>
		</g>
		<g>
			<path d="M714.5,490.3c2-1.4,5-1.9,7.3-0.7c1.3,0.7,1.9,1.8,1.9,3.6l-0.1,3.9h0.1l5.4-3.8l1.3,0.7l-7.7,5.4l-1-0.5v-5.2
				c0-1.3-0.2-2.4-1.3-3c-1.3-0.7-3.2-0.6-4.6,0.4c-1.2,0.8-1.5,1.7-1,2.7l-1.8,0.4C712.3,493,712.6,491.6,714.5,490.3z"></path>
		</g>
		<g>
			<path d="M894.1,364.6c2-1.4,5-1.9,7.3-0.7c1.3,0.7,1.9,1.8,1.9,3.6l-0.1,3.9h0.1l5.4-3.8l1.3,0.7l-7.7,5.4l-1-0.5V368
				c0-1.3-0.2-2.4-1.3-3c-1.3-0.7-3.2-0.6-4.6,0.4c-1.2,0.8-1.5,1.7-1,2.7l-1.9,0.4C891.9,367.3,892.1,365.9,894.1,364.6z"></path>
		</g>
		<g>
			<path d="M910.9,352.7c2.6-1.9,6.8-2,10.7,0.1c3.5,1.9,4.4,4.5,1.5,6.5c-2.7,1.9-6.8,2-10.7-0.1
				C908.9,357.3,908,354.8,910.9,352.7z M921.8,358.6c2-1.4,1.2-3.2-1.7-4.7c-3.1-1.7-6-1.7-7.8-0.4c-1.9,1.4-1.2,3.2,1.7,4.7
				C917,359.8,920,359.9,921.8,358.6"></path>
		</g>
		<g>
			<polygon points="903.9,357.8 915.9,364.3 914.4,365.4 904.1,359.8 903.5,362.5 901.7,362.4 902.6,358.7 			"></polygon>
		</g>
		<g>
			<path d="M1019.4,276.8c2-1.4,5-1.9,7.3-0.7c1.3,0.7,1.9,1.8,1.9,3.6l-0.1,3.9h0.1l5.4-3.8l1.3,0.7l-7.7,5.4l-1-0.5v-5.2
				c0-1.3-0.2-2.4-1.3-3c-1.3-0.7-3.2-0.6-4.6,0.4c-1.2,0.8-1.5,1.7-1,2.7l-1.9,0.4C1017.2,279.5,1017.5,278.2,1019.4,276.8z"></path>
		</g>
		<g>
			<polygon points="1029.2,270 1041.2,276.5 1039.7,277.6 1029.5,272.1 1028.9,274.7 1027,274.7 1028,270.9 			"></polygon>
		</g>
		<g>
			<polygon points="1035.8,265.4 1047.8,271.9 1046.3,273 1036.1,267.4 1035.5,270.1 1033.7,270 1034.6,266.3 			"></polygon>
		</g>
		<g>
			<polygon points="963.5,70.1 964.6,70.6 970.9,80.1 969.1,81 963.2,72 957.3,76.1 955.9,75.4 			"></polygon>
		</g>
		<g>
			<path d="M950.2,78.9c3-2.1,5.8-2,8-0.8c2.6,1.4,2,3.3-0.6,5.2l-2.6,1.8l4.7,2.6l-1.5,1.1l-12.4-6.7L950.2,78.9z M956,82.6
				c2.1-1.5,1.9-2.7,0.5-3.4c-1.6-0.9-3.5-0.6-5.2,0.6l-2.7,1.9l4.9,2.7L956,82.6"></path>
		</g>
		<g>
			<path d="M1037.8,118.8c2.7-1.9,6.8-2,10.7,0.1c3.5,1.9,4.4,4.5,1.5,6.5c-2.7,1.9-6.8,2-10.7-0.1
				C1035.7,123.4,1034.9,120.8,1037.8,118.8z M1048.6,124.7c2-1.4,1.2-3.2-1.7-4.7c-3.1-1.7-6-1.7-7.8-0.4c-1.9,1.4-1.2,3.2,1.7,4.7
				C1043.9,125.9,1046.8,125.9,1048.6,124.7"></path>
		</g>
		<g>
			<polygon points="1030.7,123.9 1042.7,130.4 1041.2,131.4 1031,125.9 1030.4,128.6 1028.5,128.5 1029.5,124.7 			"></polygon>
		</g>
		<g>
			<polygon points="1024.1,128.5 1036.1,135 1034.6,136.1 1024.4,130.5 1023.7,133.2 1021.9,133.1 1022.9,129.4 			"></polygon>
		</g>
		<g>
			<path d="M105.2,667.5c3-2.1,5.8-2,8-0.8c2.6,1.4,2,3.3-0.6,5.2l-2.6,1.8l4.7,2.6l-1.5,1.1l-12.4-6.7L105.2,667.5z M111.1,671.2
				c2.1-1.5,1.9-2.7,0.5-3.4c-1.6-0.9-3.5-0.6-5.2,0.6l-2.7,1.9l4.9,2.7L111.1,671.2"></path>
		</g>
		<g>
			<polygon points="115.6,660.8 127.6,667.3 126.1,668.3 115.8,662.8 115.2,665.5 113.4,665.4 114.3,661.6 			"></polygon>
		</g>
		<g>
			<polygon points="179.1,717.1 191.1,723.6 189.6,724.6 179.4,719.1 178.8,721.8 177,721.7 177.9,718 			"></polygon>
		</g>
		<g>
			<path d="M208.1,707.4l1.8-1.2l1.3,0.7l-1.8,1.2l2.1,1.1l-1.5,1l-2-1l-5.7,4l-1.1-0.6l-2.9-8.9l1.3-0.9L208.1,707.4z M206.7,708.5
				l-6.1-3.3l2.1,6.1L206.7,708.5"></path>
		</g>
		<g>
			<path d="M186.2,712c2.7-1.9,6.8-2,10.7,0.1c3.5,1.9,4.4,4.5,1.5,6.5c-2.7,1.9-6.8,2-10.7-0.1C184.2,716.6,183.3,714.1,186.2,712z
				 M197,717.9c2-1.4,1.2-3.2-1.7-4.7c-3.1-1.7-6-1.7-7.8-0.4c-1.9,1.4-1.2,3.2,1.7,4.7C192.3,719.1,195.2,719.2,197,717.9"></path>
		</g>
	</g>
</g>
<g>
	<g>
		<g enable-background="new    ">
			<g>
				<polygon fill="#201C1D" points="596.4,242 597.5,249.8 553.8,226.1 552.7,218.3 				"></polygon>
			</g>
			<g>
				<polygon fill="#221E1F" points="552.7,218.3 553.8,226.1 280,417.8 278.9,410 				"></polygon>
			</g>
			<g>
				<polygon fill="#E6E6E6" points="322.6,433.7 323.8,441.5 280,417.8 278.9,410 				"></polygon>
			</g>
			<g>
				<polygon fill="#F5F5F5" points="596.4,242 597.5,249.8 323.8,441.5 322.6,433.7 				"></polygon>
			</g>
			<g>
				<path fill="#221E1F" d="M277.5,410.1l275.2-192.7l45.1,24.4L322.6,434.6L277.5,410.1z M596.4,242l-43.7-23.7L278.9,410
					l43.7,23.7L596.4,242"></path>
			</g>
			<g>
				<polygon fill="#F7F7F7" points="552.7,218.3 596.4,242 322.6,433.7 278.9,410 				"></polygon>
			</g>
			<g>
				<polygon fill="#201C1D" points="322.6,434.6 323.7,442.4 278.6,417.9 277.5,410.1 				"></polygon>
			</g>
			<g>
				<polygon fill="#221E1F" points="597.8,241.9 599,249.7 323.7,442.4 322.6,434.6 				"></polygon>
			</g>
		</g>
	</g>
</g>
<g id="Layer_2_00000142159542712492139030000002212197793789583039_">
	<g>
		<g>
			<path fill="#1D1A1B" d="M414.9,337.4c1.4-1,3.3-1.7,5.5-2l0.3,1.3c-1.8,0.3-3.4,0.8-4.3,1.5c-1.2,0.8-1.6,1.9-0.5,2.6
				c1.2,0.7,2.8,0.1,5-0.7c3-1,5.3-2,7.7-0.7c2.3,1.2,1.5,3.3-0.8,4.9c-1.6,1.1-3.8,1.9-6.4,2.1l-0.2-1.3c2,0,4-0.7,5.2-1.5
				c1.6-1.1,1.9-2.2,0.7-2.9c-1.4-0.8-2.9-0.1-5.2,0.7c-2.6,0.9-5.3,1.9-7.5,0.7C412.5,340.9,412.7,338.9,414.9,337.4z"></path>
		</g>
		<g enable-background="new    ">
			<g>
				<path fill="#1D1A1B" d="M437.8,321.5l17.3,3.4l-1.6,1.1l-4.2-0.8l-5.7,4l1.9,2.4l-1.6,1.1l-7.6-10.1L437.8,321.5z M442.7,328.1
					l4.7-3.3l-8.6-1.7l0,0L442.7,328.1"></path>
			</g>
			<g>
				<polygon fill="#1D1A1B" points="430.2,326.8 431.6,327.5 427.8,330.2 438.9,336.2 437.3,337.3 426.2,331.3 422.4,334 421,333.2 
									"></polygon>
			</g>
		</g>
		<g>
			<path fill="#1D1A1B" d="M450.4,312.5c1.7-1.2,4.1-2.1,6.8-2.3l-0.2,1.3c-2,0.2-3.7,0.8-5.2,1.9c-2.7,1.9-2.7,4.3,0.3,5.9
				c2.8,1.5,6.8,1.3,9.6-0.7c1.3-0.9,2.1-1.9,2.4-2.9l-2.7-1.5l-3.7,2.6l-1.4-0.8l5.2-3.7l4.9,2.7c-0.2,1.4-1.4,3-3.4,4.3
				c-3.7,2.6-8.8,3.1-12.7,1C446.8,318.4,446.6,315.2,450.4,312.5z"></path>
		</g>
		<g>
			<polygon fill="#1D1A1B" points="466.4,301.5 467.8,302.2 461.5,306.6 465.7,308.9 470.8,305.3 472.2,306 467.1,309.6 
				471.2,311.8 477.8,307.2 479.2,308 471.1,313.7 458.6,306.9 			"></polygon>
		</g>
	</g>
</g>
<g id="legend_1_">
	<text transform="matrix(1 0 0 1 18.4049 1015.6169)" fill="#231F20" font-family="'Averta-Regular'" font-size="17.8806px">- Seat plan is not drawn to scale</text>
	<text transform="matrix(1 0 0 1 18.4049 1037.1169)" fill="#231F20" font-family="'Averta-Regular'" font-size="17.8806px">- Colour indicates price category</text>
	<text transform="matrix(1 0 0 1 18.4049 1058.517)" fill="#231F20" font-family="'Averta-Regular'" font-size="17.8806px">- Ticket prices exclude booking fees</text>
	<text transform="matrix(1 0 0 1 18.4049 1080.017)" fill="#231F20" font-family="'Averta-Regular'" font-size="17.8806px">- Seating layout subject to change</text>
	<g id="cat_1_">
		<rect x="18.4" y="876.1" fill="#EDE83F" width="34.9" height="17.5"></rect>
		<rect x="18.4" y="906.1" fill="#32A6DA" width="34.9" height="17.5"></rect>
		<rect x="18.4" y="935.2" fill="#EF5454" width="34.9" height="17.5"></rect>
		<rect x="18.4" y="964.3" fill="#5FBA46" width="34.9" height="17.5"></rect>
		<text transform="matrix(1 0 0 1 59.5934 892.326)" fill="#231F20" font-family="'Averta-Regular'" font-size="17.8806px">CAT 1</text>
		
			<text transform="matrix(1 0 0 1 106.3934 892.326)" fill="#231F20" font-family="'Averta-Regular'" font-size="17.8806px" letter-spacing="30"> </text>
		
			<text transform="matrix(1 0 0 1 143.3934 892.326)" fill="#231F20" font-family="'Averta-Regular'" font-size="17.8806px" letter-spacing="35">  </text>
		<text transform="matrix(1 0 0 1 227.1934 892.326)" fill="#231F20" font-family="'Averta-Regular'" font-size="17.8806px">$258</text>
		<text transform="matrix(1 0 0 1 59.5934 922.2703)" fill="#231F20" font-family="'Averta-Regular'" font-size="17.8806px">CAT 2</text>
		
			<text transform="matrix(1 0 0 1 108.9934 922.2703)" fill="#231F20" font-family="'Averta-Regular'" font-size="17.8806px" letter-spacing="27"> </text>
		
			<text transform="matrix(1 0 0 1 143.3934 922.2703)" fill="#231F20" font-family="'Averta-Regular'" font-size="17.8806px" letter-spacing="35">  </text>
		<text transform="matrix(1 0 0 1 227.1934 922.2703)" fill="#231F20" font-family="'Averta-Regular'" font-size="17.8806px">$208</text>
		<text transform="matrix(1 0 0 1 59.5934 951.3611)" fill="#231F20" font-family="'Averta-Regular'" font-size="17.8806px">CAT 3 </text>
		
			<text transform="matrix(1 0 0 1 114.0934 951.3611)" fill="#231F20" font-family="'Averta-Regular'" font-size="17.8806px" letter-spacing="22"> </text>
		
			<text transform="matrix(1 0 0 1 143.3934 951.3611)" fill="#231F20" font-family="'Averta-Regular'" font-size="17.8806px" letter-spacing="35">  </text>
		<text transform="matrix(1 0 0 1 227.1934 951.3611)" fill="#231F20" font-family="'Averta-Regular'" font-size="17.8806px">$168</text>
		<text transform="matrix(1 0 0 1 59.5939 980.533)" fill="#231F20" font-family="'Averta-Regular'" font-size="17.8806px">CAT 4</text>
		
			<text transform="matrix(1 0 0 1 109.7939 980.533)" fill="#231F20" font-family="'Averta-Regular'" font-size="17.8806px" letter-spacing="26"> </text>
		<text transform="matrix(1 0 0 1 143.3939 980.533)" fill="#231F20" font-family="'Averta-Regular'" font-size="17.8806px"> </text>
		
			<text transform="matrix(1 0 0 1 148.1939 980.533)" fill="#231F20" font-family="'Averta-Regular'" font-size="17.8806px" letter-spacing="30"> </text>
		
			<text transform="matrix(1 0 0 1 185.2939 980.533)" fill="#231F20" font-family="'Averta-Regular'" font-size="17.8806px" letter-spacing="35"> </text>
		<text transform="matrix(1 0 0 1 227.1939 980.533)" fill="#231F20" font-family="'Averta-Regular'" font-size="17.8806px">$128</text>
	</g>
</g>
</svg>