<svg xmlns="http://www.w3.org/2000/svg" xmlns:xlink="http://www.w3.org/1999/xlink" viewBox="0 0 12 12">
    <defs>
        <circle id="us_a" cx="6" cy="6" r="6"></circle>
        <rect id="us_c" width="16.696" height="12" rx="2"></rect>
        <linearGradient x1="50%" y1="0%" x2="50%" y2="100%" id="us_g">
            <stop stop-color="#FFF" offset="0%"></stop>
            <stop stop-color="#F0F0F0" offset="100%"></stop>
        </linearGradient>
        <path d="M.913 1.357c-.216 0-.391-.187-.391-.418 0-.23.175-.417.391-.417.216 0 .391.187.391.417 0 .23-.175.418-.391.418zm1.565 0c-.216 0-.391-.187-.391-.418 0-.23.175-.417.391-.417.216 0 .392.187.392.417 0 .23-.176.418-.392.418zm1.565 0c-.216 0-.39-.187-.39-.418 0-.23.174-.417.39-.417.217 0 .392.187.392.417 0 .23-.175.418-.392.418zm1.566 0c-.216 0-.392-.187-.392-.418 0-.23.176-.417.392-.417.216 0 .391.187.391.417 0 .23-.175.418-.391.418zm-3.913.834c-.216 0-.392-.187-.392-.417 0-.23.176-.417.392-.417.216 0 .391.186.391.417 0 .23-.175.417-.391.417zm1.565 0c-.216 0-.391-.187-.391-.417 0-.23.175-.417.39-.417.217 0 .392.186.392.417 0 .23-.175.417-.391.417zm1.565 0c-.216 0-.391-.187-.391-.417 0-.23.175-.417.391-.417.216 0 .391.186.391.417 0 .23-.175.417-.39.417zm.783.835c-.216 0-.392-.187-.392-.417 0-.23.176-.418.392-.418.216 0 .391.187.391.418 0 .23-.175.417-.391.417zm-1.566 0c-.216 0-.39-.187-.39-.417 0-.23.174-.418.39-.418.217 0 .392.187.392.418 0 .23-.175.417-.392.417zm-1.565 0c-.216 0-.391-.187-.391-.417 0-.23.175-.418.391-.418.216 0 .392.187.392.418 0 .23-.176.417-.392.417zm-1.565 0c-.216 0-.391-.187-.391-.417 0-.23.175-.418.391-.418.216 0 .391.187.391.418 0 .23-.175.417-.391.417zm.783.835c-.216 0-.392-.187-.392-.418 0-.23.176-.417.392-.417.216 0 .391.187.391.417 0 .231-.175.418-.391.418zm1.565 0c-.216 0-.391-.187-.391-.418 0-.23.175-.417.39-.417.217 0 .392.187.392.417 0 .231-.175.418-.391.418zm1.565 0c-.216 0-.391-.187-.391-.418 0-.23.175-.417.391-.417.216 0 .391.187.391.417 0 .231-.175.418-.39.418zm.783.835c-.216 0-.392-.187-.392-.418 0-.23.176-.417.392-.417.216 0 .391.187.391.417 0 .23-.175.418-.391.418zm-1.566 0c-.216 0-.39-.187-.39-.418 0-.23.174-.417.39-.417.217 0 .392.187.392.417 0 .23-.175.418-.392.418zm-1.565 0c-.216 0-.391-.187-.391-.418 0-.23.175-.417.391-.417.216 0 .392.187.392.417 0 .23-.176.418-.392.418zm-1.565 0c-.216 0-.391-.187-.391-.418 0-.23.175-.417.391-.417.216 0 .391.187.391.417 0 .23-.175.418-.391.418z" id="us_f"></path>
        <filter x="-9.1%" y="-12%" width="118.3%" height="147.9%" filterUnits="objectBoundingBox" id="us_e">
            <feOffset dy="1" in="SourceAlpha" result="shadowOffsetOuter1"></feOffset>
            <feColorMatrix values="0 0 0 0 0 0 0 0 0 0 0 0 0 0 0 0 0 0 0.06 0" in="shadowOffsetOuter1"></feColorMatrix>
        </filter>
    </defs>
    <g fill="none" fill-rule="evenodd">
        <mask id="us_b" fill="#fff">
            <use xlink:href="#us_a"></use>
        </mask>
        <g mask="url(#us_b)">
            <g transform="translate(-.8)">
                <mask id="us_d" fill="#fff">
                    <use xlink:href="#us_c"></use>
                </mask>
                <use fill="#FFF" xlink:href="#us_c"></use>
                <path d="M0 0h16.696v.8H0V0zm0 1.6h16.696v.8H0v-.8zm0 1.6h16.696V4H0v-.8zm0 1.6h16.696v.8H0v-.8zm0 1.6h16.696v.8H0v-.8zM0 8h16.696v.8H0V8zm0 1.6h16.696v.8H0v-.8zm0 1.6h16.696v.8H0v-.8z" fill="#D02F44" mask="url(#us_d)"></path>
                <path fill="#46467F" mask="url(#us_d)" d="M0 0h7.043v5.478H0z"></path>
                <g mask="url(#us_d)">
                    <use fill="#000" filter="url(#us_e)" xlink:href="#us_f"></use>
                    <use fill="url(#us_g)" xlink:href="#us_f"></use>
                </g>
            </g>
        </g>
    </g>
</svg>