<svg xmlns="http://www.w3.org/2000/svg" xmlns:xlink="http://www.w3.org/1999/xlink" viewBox="0 0 12 12">
    <defs>
        <circle id="ch_a" cx="6" cy="6" r="6"></circle>
    </defs>
    <g fill="none" fill-rule="evenodd">
        <mask id="ch_b" fill="#fff">
            <use xlink:href="#ch_a"></use>
        </mask>
        <use fill="#E8252A" xlink:href="#ch_a"></use>
        <g mask="url(#ch_b)" fill="#FFF">
            <path d="M4.667 7.333h-2.34A.325.325 0 0 1 2 7.006V4.994c0-.18.143-.327.327-.327h2.34v-2.34c0-.18.143-.327.327-.327h2.012c.18 0 .327.143.327.327v2.34h2.34c.18 0 .327.143.327.327v2.012c0 .18-.143.327-.327.327h-2.34v2.34c0 .18-.143.327-.327.327H4.994a.325.325 0 0 1-.327-.327v-2.34z"></path>
        </g>
    </g>
</svg>