<svg xmlns="http://www.w3.org/2000/svg" xmlns:xlink="http://www.w3.org/1999/xlink" viewBox="0 0 12 12">
    <defs>
        <circle id="cy_a" cx="6" cy="6" r="6"></circle>
        <rect id="cy_c" width="17.6" height="12.516" rx="2"></rect>
    </defs>
    <g fill="none" fill-rule="evenodd">
        <mask id="cy_b" fill="#fff">
            <use xlink:href="#cy_a"></use>
        </mask>
        <g mask="url(#cy_b)">
            <g transform="translate(-2.763 -.258)">
                <mask id="cy_d" fill="#fff">
                    <use xlink:href="#cy_c"></use>
                </mask>
                <use fill="#FFF" fill-rule="nonzero" xlink:href="#cy_c"></use>
                <path d="M12.856 2.116c.335-.165.438-.05.228.26l-.078.116c-.21.308-.62.717-.932.921l-.146.096c-.306.2-.762.569-.97.774l.417-.41c-.231.226-.207.618.058.879l-.117-.115a.653.653 0 0 1 0 .937l.117-.115c-.263.258-.74.338-1.083.17l.379.186a.678.678 0 0 0-.91.299l.189-.373c-.168.33-.594.693-.93.803a4.992 4.992 0 0 1-1.3.205h.513c-.373 0-.807.26-.978.598l.19-.373a.675.675 0 0 1-.907.3l-.464-.228a4.946 4.946 0 0 1-1.08-.765l.117.115c-.262-.259-.476-.765-.476-1.132v.505c0-.367.304-.664.418-.664h-.418c.231 0 .629-.207.894-.468l-.117.115c.263-.259.778-.469 1.15-.469h-.513c.372 0 .771-.286.888-.63l-.01.028a.781.781 0 0 1 .874-.5l.767.15a3.6 3.6 0 0 0 1.302-.027l.388-.096a7.329 7.329 0 0 0 1.248-.456l-.379.186 1.214-.597-.379.186 1.214-.597-.378.186z" fill="#E7832C" mask="url(#cy_d)"></path>
                <circle fill="#445128" mask="url(#cy_d)" cx="8.604" cy="9.387" r="1"></circle>
                <path d="M10.169 8.996s1.173-.392 1.564-1.174" stroke="#445128" stroke-width="1.333" opacity=".75" stroke-linecap="round" mask="url(#cy_d)"></path>
                <path d="M5.867 8.996S7.04 8.604 7.43 7.822" stroke="#445128" stroke-width="1.333" opacity=".75" stroke-linecap="round" mask="url(#cy_d)" transform="matrix(-1 0 0 1 13.298 0)"></path>
            </g>
        </g>
    </g>
</svg>