<svg xmlns="http://www.w3.org/2000/svg" xmlns:xlink="http://www.w3.org/1999/xlink" viewBox="0 0 16 16">
    <g id="Icon-Singapore">
        <g id="Icon-Singapore">
            <g>
                <g id="Oval">
                </g>
                <defs>
                    <filter id="Adobe_OpacityMaskFilter" filterUnits="userSpaceOnUse" x="-1.3" y="-1.3" width="24.7" height="18">
                        <feColorMatrix  type="matrix" values="1 0 0 0 0  0 1 0 0 0  0 0 1 0 0  0 0 0 1 0"/>
                    </filter>
                </defs>
                <mask maskUnits="userSpaceOnUse" x="-1.3" y="-1.3" width="24.7" height="18" id="mask-2_1_">
                    <g filter="url(#Adobe_OpacityMaskFilter)">
                        <circle id="path-1_1_" fill-rule="evenodd" clip-rule="evenodd" fill="#FFFFFF" cx="8" cy="8" r="8"/>
                    </g>
                </mask>
                <g id="TW-Copy" mask="url(#mask-2_1_)">
                    <g transform="translate(-0.666667, 0.000000)">
                        <g id="Mask">
                            <path id="path-4_1_" fill-rule="evenodd" clip-rule="evenodd" fill="#FFFFFF" d="M2,0h18.7c1.1,0,2,0.9,2,2v12
                                c0,1.1-0.9,2-2,2H2c-1.1,0-2-0.9-2-2V2C0,0.9,0.9,0,2,0z"/>
                        </g>
                        <defs>
                            <filter id="Adobe_OpacityMaskFilter_1_" filterUnits="userSpaceOnUse" x="-0.7" y="-1.3" width="24.7" height="18">
                                <feColorMatrix  type="matrix" values="1 0 0 0 0  0 1 0 0 0  0 0 1 0 0  0 0 0 1 0"/>
                            </filter>
                        </defs>
                        <mask maskUnits="userSpaceOnUse" x="-0.7" y="-1.3" width="24.7" height="18" id="mask-5_1_">
                            <g filter="url(#Adobe_OpacityMaskFilter_1_)">
                                <path id="path-4_2_" fill-rule="evenodd" clip-rule="evenodd" fill="#FFFFFF" d="M2,0h18.7c1.1,0,2,0.9,2,2v12
                                    c0,1.1-0.9,2-2,2H2c-1.1,0-2-0.9-2-2V2C0,0.9,0.9,0,2,0z"/>
                            </g>
                        </mask>

                            <rect id="Rectangle-2" x="-0.7" y="-1.3" display="none" mask="url(#mask-5_1_)" fill-rule="evenodd" clip-rule="evenodd" fill="#FE3030" width="24.7" height="18"/>
                        <defs>
                            <filter id="Adobe_OpacityMaskFilter_2_" filterUnits="userSpaceOnUse" x="-0.7" y="-0.7" width="12.7" height="9.3">
                                <feColorMatrix  type="matrix" values="1 0 0 0 0  0 1 0 0 0  0 0 1 0 0  0 0 0 1 0"/>
                            </filter>
                        </defs>
                        <mask maskUnits="userSpaceOnUse" x="-0.7" y="-0.7" width="12.7" height="9.3" id="mask-5_2_">
                            <g filter="url(#Adobe_OpacityMaskFilter_2_)">
                                <path id="path-4_3_" fill-rule="evenodd" clip-rule="evenodd" fill="#FFFFFF" d="M2,0h18.7c1.1,0,2,0.9,2,2v12
                                    c0,1.1-0.9,2-2,2H2c-1.1,0-2-0.9-2-2V2C0,0.9,0.9,0,2,0z"/>
                            </g>
                        </mask>

                            <rect id="Rectangle-2_1_" x="-0.7" y="-0.7" display="none" mask="url(#mask-5_2_)" fill-rule="evenodd" clip-rule="evenodd" fill="#0909B6" width="12.7" height="9.3"/>
                        <defs>
                            <filter id="Adobe_OpacityMaskFilter_3_" filterUnits="userSpaceOnUse" x="4.2" y="2.2" width="4.9" height="4.9">
                                <feColorMatrix  type="matrix" values="1 0 0 0 0  0 1 0 0 0  0 0 1 0 0  0 0 0 1 0"/>
                            </filter>
                        </defs>
                        <mask maskUnits="userSpaceOnUse" x="4.2" y="2.2" width="4.9" height="4.9" id="mask-5_3_">
                            <g filter="url(#Adobe_OpacityMaskFilter_3_)">
                                <path id="path-4_4_" fill-rule="evenodd" clip-rule="evenodd" fill="#FFFFFF" d="M2,0h18.7c1.1,0,2,0.9,2,2v12
                                    c0,1.1-0.9,2-2,2H2c-1.1,0-2-0.9-2-2V2C0,0.9,0.9,0,2,0z"/>
                            </g>
                        </mask>
                        <polygon id="Star-27" mask="url(#mask-5_3_)" fill-rule="evenodd" clip-rule="evenodd" fill="#FFFFFF" points="6.7,6 5.6,7.1
                            5.7,5.6 4.2,5.7 5.3,4.7 4.2,3.6 5.7,3.7 5.6,2.2 6.7,3.3 7.7,2.2 7.6,3.7 9.1,3.6 8,4.7 9.1,5.7 7.6,5.6 7.7,7.1 					"/>
                    </g>
                </g>
                <defs>
                    <filter id="Adobe_OpacityMaskFilter_4_" filterUnits="userSpaceOnUse" x="0" y="-0.9" width="18.7" height="16.9">
                        <feColorMatrix  type="matrix" values="1 0 0 0 0  0 1 0 0 0  0 0 1 0 0  0 0 0 1 0"/>
                    </filter>
                </defs>
                <mask maskUnits="userSpaceOnUse" x="0" y="-0.9" width="18.7" height="16.9" id="mask-2_2_">
                    <g filter="url(#Adobe_OpacityMaskFilter_4_)">
                        <circle id="path-1_2_" fill-rule="evenodd" clip-rule="evenodd" fill="#FFFFFF" cx="8" cy="8" r="8"/>
                    </g>
                </mask>
                <g id="SG" mask="url(#mask-2_2_)">
                    <path fill="none" stroke="#F5F5F5" stroke-width="0.5" d="M2.3,0.3h11.5c1.1,0,2,0.9,2,2v11.5c0,1.1-0.9,2-2,2H2.3
                        c-1.1,0-2-0.9-2-2V2.3C0.3,1.1,1.1,0.3,2.3,0.3z"/>
                    <defs>
                        <filter id="Adobe_OpacityMaskFilter_5_" filterUnits="userSpaceOnUse" x="0" y="-0.9" width="18.7" height="9.3">
                            <feColorMatrix  type="matrix" values="1 0 0 0 0  0 1 0 0 0  0 0 1 0 0  0 0 0 1 0"/>
                        </filter>
                    </defs>
                    <mask maskUnits="userSpaceOnUse" x="0" y="-0.9" width="18.7" height="9.3" id="mask-8_1_">
                        <g filter="url(#Adobe_OpacityMaskFilter_5_)">
                            <path id="path-7_1_" fill-rule="evenodd" clip-rule="evenodd" fill="#FFFFFF" d="M2,0h12c1.1,0,2,0.9,2,2v12c0,1.1-0.9,2-2,2
                                H2c-1.1,0-2-0.9-2-2V2C0,0.9,0.9,0,2,0z"/>
                        </g>
                    </mask>

                        <rect id="Rectangle-2_2_" y="-0.9" mask="url(#mask-8_1_)" fill-rule="evenodd" clip-rule="evenodd" fill="#E12237" width="18.7" height="9.3"/>
                    <defs>
                        <filter id="Adobe_OpacityMaskFilter_6_" filterUnits="userSpaceOnUse" x="1.8" y="2.2" width="7.1" height="5.3">
                            <feColorMatrix  type="matrix" values="1 0 0 0 0  0 1 0 0 0  0 0 1 0 0  0 0 0 1 0"/>
                        </filter>
                    </defs>
                    <mask maskUnits="userSpaceOnUse" x="1.8" y="2.2" width="7.1" height="5.3" id="mask-8_2_">
                        <g filter="url(#Adobe_OpacityMaskFilter_6_)">
                            <path id="path-7_2_" fill-rule="evenodd" clip-rule="evenodd" fill="#FFFFFF" d="M2,0h12c1.1,0,2,0.9,2,2v12c0,1.1-0.9,2-2,2
                                H2c-1.1,0-2-0.9-2-2V2C0,0.9,0.9,0,2,0z"/>
                        </g>
                    </mask>
                    <path id="Oval-12" mask="url(#mask-8_2_)" fill-rule="evenodd" clip-rule="evenodd" fill="#FFFFFF" d="M4.4,2.2
                        c0.6,0,1.2,0.2,1.7,0.6C5.9,2.7,5.6,2.7,5.3,2.7c-1.2,0-2.2,1-2.2,2.2s1,2.2,2.2,2.2c0.3,0,0.5,0,0.8-0.1
                        c-0.5,0.4-1,0.6-1.7,0.6C3,7.6,1.8,6.4,1.8,4.9S3,2.2,4.4,2.2z M5.8,5.8C6,5.8,6.2,6,6.2,6.2c0,0.2-0.2,0.4-0.4,0.4
                        c-0.2,0-0.4-0.2-0.4-0.4C5.3,6,5.5,5.8,5.8,5.8z M7.6,5.8C7.8,5.8,8,6,8,6.2c0,0.2-0.2,0.4-0.4,0.4c-0.2,0-0.4-0.2-0.4-0.4
                        C7.1,6,7.3,5.8,7.6,5.8z M4.9,4c0.2,0,0.4,0.2,0.4,0.4c0,0.2-0.2,0.4-0.4,0.4S4.4,4.7,4.4,4.4C4.4,4.2,4.6,4,4.9,4z M8.4,4
                        c0.2,0,0.4,0.2,0.4,0.4c0,0.2-0.2,0.4-0.4,0.4C8.2,4.9,8,4.7,8,4.4C8,4.2,8.2,4,8.4,4z M6.7,2.7c0.2,0,0.4,0.2,0.4,0.4
                        S6.9,3.6,6.7,3.6c-0.2,0-0.4-0.2-0.4-0.4S6.4,2.7,6.7,2.7z"/>
                </g>
            </g>
        </g>
    </g>
</svg>