<svg xmlns="http://www.w3.org/2000/svg" xmlns:xlink="http://www.w3.org/1999/xlink" viewBox="0 0 12 12">
    <defs>
        <circle id="tr_a" cx="6" cy="6" r="6"></circle>
        <rect id="tr_c" width="16.744" height="12" rx="2"></rect>
    </defs>
    <g fill="none" fill-rule="evenodd">
        <mask id="tr_b" fill="#fff">
            <use xlink:href="#tr_a"></use>
        </mask>
        <g mask="url(#tr_b)">
            <g transform="translate(-2.4)">
                <mask id="tr_d" fill="#fff">
                    <use xlink:href="#tr_c"></use>
                </mask>
                <use fill="#FFF" fill-rule="nonzero" xlink:href="#tr_c"></use>
                <path fill="#E92434" mask="url(#tr_d)" d="M0 0h16.744v12H0z"></path>
                <path fill="#FFF" mask="url(#tr_d)" d="M10.968 6.383l-.893.677.33-1.113-.882-.694 1.096-.01.349-1.107.348 1.106 1.096.01-.881.695.33 1.113-.893-.677z"></path>
                <path d="M10.326 3.912a3.09 3.09 0 0 0-1.835-.594C6.84 3.318 5.5 4.58 5.5 6.14c0 1.558 1.339 2.821 2.99 2.821a3.09 3.09 0 0 0 1.835-.594 3.567 3.567 0 0 1-2.832 1.4c-1.981 0-3.587-1.624-3.587-3.627 0-2.004 1.606-3.628 3.587-3.628 1.15 0 2.175.548 2.832 1.4z" fill="#FFF" mask="url(#tr_d)"></path>
            </g>
        </g>
    </g>
</svg>